#N canvas 456 22 792 540 10;
#X declare -path ./ -path ../../;
#X obj 150 107 utils/get.time;
#X obj 30 27 declare -path ./ -path ../../;
#X obj 30 237 pd-dom stream-test;
#X obj 30 197 s stream-test.to;
#X obj 30 277 r stream-test.from;
#X msg 198 249 vis \$1;
#X obj 198 219 hradio 15 1 0 8 empty empty empty 0 -8 0 10 -262144
-1 -1 0;
#X msg 150 187 add stream-abs;
#X msg 30 157 foo bar;
#X connect 5 0 2 1;
#X connect 6 0 5 0;
#X connect 7 0 2 1;
#X connect 8 0 3 0;
