#N canvas 373 359 541 285 10;
#X obj 56 24 pddom.from \$1 \$2;
#X obj 56 154 pddom.to \$1 \$2;
#X obj 96 104 print \$1.\$2;
#X obj 56 64 t a a;
#X connect 0 0 3 0;
#X connect 3 0 1 0;
#X connect 3 1 2 0;
